#!OML:ASF H:\Terrain\Walking\May29\JustinRory\Justin.ASF
:FULLY-SPECIFIED
:DEGREES
40
root 16.974 9.80815 -6.60514 -124.404 -84.6358 98.5423
lowerback 40.9802 3.26715 -2.09631
upperback 14.7147 1.1755 3.26006
thorax -3.42239 -0.646188 4.15378
lowerneck -22.7325 13.2428 -5.29409
upperneck 11.694 19.0434 1.89996
head 6.46777 9.10694 3.53144
rclavicle -1.98785e-014 -1.11319e-014
rhumerus 2.78349 20.6328 -71.4486
rradius 76.3713
rwrist 4.40678
rhand -9.75128 14.924
rfingers 7.12502
rthumb 16.2231 -14.4172
lclavicle -1.98785e-014 -1.11319e-014
lhumerus 1.99821 -17.3048 86.9241
lradius 70.4099
lwrist -19.3814
lhand -18.0126 38.5795
lfingers 7.12502
lthumb 8.25817 68.3981
rfemur -63.7857 -11.883 13.1695
rtibia 72.0179
rfoot 19.4004 1.5641
rtoes 11.0841
lfemur -62.6859 11.8475 -16.6253
ltibia 72.5038
lfoot 20.6527 -5.01344
ltoes 20.5172
41
root 16.9724 9.80925 -6.61117 -125.41 -84.7627 99.5623
lowerback 40.9162 3.31737 -1.99655
upperback 14.7684 1.27909 3.38971
thorax -3.35554 -0.602036 4.20164
lowerneck -22.8744 13.6205 -4.74658
upperneck 11.9964 19.4826 1.4765
head 6.66766 9.28026 3.41279
rclavicle 1.03368e-014 -7.95139e-015
rhumerus 2.6525 20.4017 -71.3706
rradius 76.6162
rwrist 4.42614
rhand -9.41273 15.0153
rfingers 7.12502
rthumb 16.5491 -14.299
lclavicle 1.03368e-014 -7.95139e-015
lhumerus 2.11823 -17.4882 86.9882
lradius 70.3394
lwrist -19.2838
lhand -18.2484 38.5638
lfingers 7.12502
lthumb 8.03057 68.3912
rfemur -63.7893 -11.7616 13.336
rtibia 72.0297
rfoot 19.4379 1.35907
rtoes 11.3703
lfemur -62.7031 11.8554 -16.4245
ltibia 72.5364
lfoot 20.8943 -5.34569
ltoes 19.9405
42
root 16.973 9.81427 -6.61653 -129.97 -85.2516 104.227
lowerback 40.7755 3.28986 -1.46072
upperback 14.8558 1.45765 3.69563
thorax -3.23077 -0.515539 4.1844
lowerneck -21.9911 13.7473 -4.06317
upperneck 11.0381 19.6125 0.0541785
head 6.43438 9.27705 2.80954
rclavicle 1.27222e-014 1.90833e-014
rhumerus 2.64198 20.0172 -71.1516
rradius 76.6717
rwrist 4.53342
rhand -9.60594 15.3637
rfingers 7.12502
rthumb 16.3631 -13.966
lclavicle 1.27222e-014 1.90833e-014
lhumerus 2.36922 -17.7882 87.1163
lradius 70.2165
lwrist -19.0913
lhand -18.4743 38.8607
lfingers 7.12502
lthumb 7.81254 68.6963
rfemur -63.8005 -11.5645 14.0378
rtibia 71.9808
rfoot 19.4861 1.02163
rtoes 12.3633
lfemur -62.8356 11.9763 -15.7242
ltibia 72.6127
lfoot 21.1082 -5.68405
ltoes 19.6047
43
root 16.97 9.81595 -6.60995 -130.218 -85.4609 104.654
lowerback 40.6321 3.22974 -1.21652
upperback 14.8664 1.49569 3.86467
thorax -3.18038 -0.491974 4.2242
lowerneck -16.5035 13.2788 -2.45287
upperneck 4.38779 18.5636 -4.41253
head 4.09986 8.82163 0.530301
rclavicle 1.90833e-014 9.54166e-015
rhumerus 2.64245 19.7361 -70.9467
rradius 76.6159
rwrist 4.56859
rhand -10.1331 15.9003
rfingers 7.12502
rthumb 15.8555 -13.4705
lclavicle 1.90833e-014 9.54166e-015
lhumerus 2.54275 -18.0894 87.1604
lradius 70.1169
lwrist -18.7407
lhand -18.717 39.0956
lfingers 7.12502
lthumb 7.57834 68.9399
rfemur -63.9524 -11.7943 14.3513
rtibia 71.9372
rfoot 19.497 1.19663
rtoes 12.1267
lfemur -63.0779 11.9155 -15.6018
ltibia 72.6718
lfoot 20.9242 -5.22202
ltoes 21.7021
44
root 16.9708 9.81742 -6.60274 -127.11 -85.4151 101.66
lowerback 40.6403 3.19688 -1.1486
upperback 14.7938 1.50348 3.87384
thorax -3.26201 -0.474831 4.19615
lowerneck -14.8526 13.3943 -1.71987
upperneck 2.22979 18.5033 -5.69834
head 3.71982 8.84402 -0.115244
rclavicle 1.59028e-015 5.40694e-014
rhumerus 2.41588 19.3898 -70.8681
rradius 76.675
rwrist 4.74356
rhand -10.3177 16.4492
rfingers 7.12502
rthumb 15.6777 -12.9356
lclavicle 1.59028e-015 5.40694e-014
lhumerus 2.59477 -18.4593 87.1532
lradius 70.0567
lwrist -18.452
lhand -18.8366 39.1059
lfingers 7.12502
lthumb 7.4629 68.9543
rfemur -64.1029 -12.1138 14.19
rtibia 71.9228
rfoot 19.4487 1.46196
rtoes 12.0181
lfemur -63.2399 11.7442 -15.8657
ltibia 72.6846
lfoot 20.7735 -4.73114
ltoes 23.8442
45
root 16.9713 9.82068 -6.60263 -128.594 -85.604 103.161
lowerback 40.6776 3.20798 -0.764031
upperback 14.8085 1.66519 3.95781
thorax -3.2593 -0.384847 4.02705
lowerneck -15.9231 13.7496 -1.46685
upperneck 3.79748 19.0377 -5.37647
head 4.01781 9.04537 0.115636
rclavicle -1.74931e-014 -4.45278e-014
rhumerus 2.20649 18.9428 -70.7645
rradius 76.9029
rwrist 5.00484
rhand -10.2631 16.6598
rfingers 7.12502
rthumb 15.7303 -12.7209
lclavicle -1.74931e-014 -4.45278e-014
lhumerus 2.69525 -18.8503 87.1135
lradius 70.0241
lwrist -18.2376
lhand -18.7864 39.0491
lfingers 7.12502
lthumb 7.51137 68.8957
rfemur -64.0672 -12.0659 14.3546
rtibia 71.9112
rfoot 19.3425 1.35039
rtoes 12.4434
lfemur -63.2812 11.7865 -15.6416
ltibia 72.708
lfoot 20.9055 -4.84633
ltoes 24.176
